<svg xmlns="http://www.w3.org/2000/svg" width="197.236" height="44.355" viewBox="0 0 197.236 44.355"><g id="Group_175" data-name="Group 175" transform="translate(-853.729 -518.739)"><path id="Path_1" data-name="Path 1" d="M860.746,563.094a6.872,6.872,0,0,1-2.534-.485,7.189,7.189,0,0,1-4-9.246L865.654,523.3a6.973,6.973,0,0,1,8.955-4.124l.118.045a7.189,7.189,0,0,1,4,9.246L867.284,558.53A7.017,7.017,0,0,1,860.746,563.094Z" fill="#fff"></path><path id="Path_2" data-name="Path 2" d="M883.532,563.094a6.866,6.866,0,0,1-2.533-.485,7.189,7.189,0,0,1-4-9.246L888.442,523.3a6.973,6.973,0,0,1,8.955-4.124l.118.045a7.189,7.189,0,0,1,4,9.246L890.072,558.53A7.016,7.016,0,0,1,883.532,563.094Z" fill="#fff"></path><path id="Path_3" data-name="Path 3" d="M907.109,563.094a6.867,6.867,0,0,1-2.533-.485,7.189,7.189,0,0,1-4-9.246L912.018,523.3a6.973,6.973,0,0,1,8.956-4.123l.117.044a7.189,7.189,0,0,1,4,9.246L913.648,558.53A7.016,7.016,0,0,1,907.109,563.094Z" fill="#da97ff"></path><path id="Path_4" data-name="Path 4" d="M930.219,563.094a7.016,7.016,0,0,1-6.539-4.563l-11.444-30.067a7.189,7.189,0,0,1,4-9.246,6.971,6.971,0,0,1,9.028,3.961l.045.118,11.443,30.067a7.189,7.189,0,0,1-4,9.246A6.866,6.866,0,0,1,930.219,563.094Z" fill="#fff"></path><g id="Mindbox" style="mix-blend-mode: normal;isolation: isolate"><g id="Group_175-2" data-name="Group 175" style="mix-blend-mode: normal;isolation: isolate"><path id="Path_200" data-name="Path 200" d="M945.647,523.254h.58l8.528,19.087,8.5-19.087h.58v19.841h-.58V524.676l-8.209,18.419h-.58l-8.238-18.419v18.419h-.58Z" fill="#fff" stroke="#fff" stroke-width="1"></path><path id="Path_201" data-name="Path 201" d="M966.846,522.645a.755.755,0,1,1,.754.783A.738.738,0,0,1,966.846,522.645Zm.464,4.786h.58v15.664h-.58Z" fill="#fff" stroke="#fff" stroke-width="1"></path><path id="Path_202" data-name="Path 202" d="M983.842,533.9c0-4.176-2.291-6.294-5.743-6.294-3.568,0-6.15,2.262-6.15,7.165v8.325h-.58V527.431h.58v4.148c.754-3.046,3.22-4.5,6.15-4.5,3.422,0,6.295,2.03,6.295,6.875v9.137h-.552Z" fill="#fff" stroke="#fff" stroke-width="1"></path><path id="Path_203" data-name="Path 203" d="M994.629,527.228a7.024,7.024,0,0,1,7.077,4.989V521.63h.552v21.465h-.552v-4.816a7.014,7.014,0,0,1-7.077,5.019c-4.5,0-7.629-3.046-7.629-8.035S990.133,527.228,994.629,527.228Zm0,.522c-4.293,0-7.049,2.843-7.049,7.513s2.756,7.512,7.049,7.512c4.09,0,7.077-2.987,7.077-7.512S998.719,527.75,994.629,527.75Z" fill="#fff" stroke="#fff" stroke-width="1"></path><path id="Path_204" data-name="Path 204" d="M1013.362,527.228c4.5,0,7.629,3.045,7.629,8.035s-3.133,8.035-7.629,8.035a7.051,7.051,0,0,1-7.077-4.989v4.786h-.551V521.63h.551v10.587A7.1,7.1,0,0,1,1013.362,527.228Zm0,.522c-4.09,0-7.077,2.987-7.077,7.513s2.987,7.512,7.077,7.512c4.293,0,7.049-2.842,7.049-7.512S1017.655,527.75,1013.362,527.75Z" fill="#fff" stroke="#fff" stroke-width="1"></path><path id="Path_205" data-name="Path 205" d="M1030.675,543.3c-4.351,0-7.658-2.988-7.658-8.035s3.307-8.035,7.658-8.035,7.629,2.988,7.629,8.035S1035.026,543.3,1030.675,543.3Zm0-.523c3.6,0,7.049-2.32,7.049-7.512s-3.453-7.513-7.049-7.513-7.078,2.32-7.078,7.513S1027.078,542.775,1030.675,542.775Z" fill="#fff" stroke="#fff" stroke-width="1"></path><path id="Path_206" data-name="Path 206" d="M1044.594,535.64l-4.757,7.455h-.638l5.047-7.977-4.96-7.687h.667l4.7,7.281,4.67-7.281h.61l-4.961,7.8,5.076,7.862h-.667Z" fill="#fff" stroke="#fff" stroke-width="1"></path></g></g><g id="TRAININGS" style="mix-blend-mode: normal;isolation: isolate"><g id="Group_176" data-name="Group 176" style="mix-blend-mode: normal;isolation: isolate"><path id="Path_207" data-name="Path 207" d="M971.256,552.346v.592h-1.52v4.984h-.728v-4.984H967.48v-.592Z" fill="#fff" stroke="#fff" stroke-width="0.2"></path><path id="Path_208" data-name="Path 208" d="M977.616,557.922l-1.328-2.28h-.88v2.28h-.727v-5.576h1.8a2.389,2.389,0,0,1,1.068.216,1.493,1.493,0,0,1,.652.584,1.616,1.616,0,0,1-1.112,2.44l1.4,2.336Zm-2.208-2.864h1.072a1.214,1.214,0,0,0,.888-.292,1.047,1.047,0,0,0,.3-.78,1,1,0,0,0-.292-.768,1.271,1.271,0,0,0-.892-.272h-1.072Z" fill="#fff" stroke="#fff" stroke-width="0.2"></path><path id="Path_209" data-name="Path 209" d="M985.368,556.682h-2.432l-.448,1.24h-.768l2.015-5.544h.841l2.008,5.544h-.769Zm-.208-.592-1.009-2.817-1.007,2.817Z" fill="#fff" stroke="#fff" stroke-width="0.2"></path><path id="Path_210" data-name="Path 210" d="M990.721,552.346v5.576h-.729v-5.576Z" fill="#fff" stroke="#fff" stroke-width="0.2"></path><path id="Path_211" data-name="Path 211" d="M998.872,557.922h-.728l-2.928-4.441v4.441h-.728v-5.584h.728l2.928,4.432v-4.432h.728Z" fill="#fff" stroke="#fff" stroke-width="0.2"></path><path id="Path_212" data-name="Path 212" d="M1003.368,552.346v5.576h-.728v-5.576Z" fill="#fff" stroke="#fff" stroke-width="0.2"></path><path id="Path_213" data-name="Path 213" d="M1011.52,557.922h-.728l-2.928-4.441v4.441h-.728v-5.584h.728l2.928,4.432v-4.432h.728Z" fill="#fff" stroke="#fff" stroke-width="0.2"></path><path id="Path_214" data-name="Path 214" d="M1019.512,553.962a1.748,1.748,0,0,0-.672-.756,1.93,1.93,0,0,0-1.025-.268,2.07,2.07,0,0,0-1.051.268,1.9,1.9,0,0,0-.737.768,2.628,2.628,0,0,0,0,2.308,1.9,1.9,0,0,0,.737.764,2.07,2.07,0,0,0,1.051.267,1.9,1.9,0,0,0,1.344-.487,2.005,2.005,0,0,0,.616-1.32h-2.223v-.592h3v.56a2.766,2.766,0,0,1-.432,1.259,2.664,2.664,0,0,1-.969.905,2.71,2.71,0,0,1-1.336.332,2.8,2.8,0,0,1-1.416-.365,2.674,2.674,0,0,1-1.011-1.011,3.075,3.075,0,0,1,0-2.932,2.674,2.674,0,0,1,1.011-1.016,2.812,2.812,0,0,1,1.416-.364,2.848,2.848,0,0,1,1.573.44,2.522,2.522,0,0,1,1,1.24Z" fill="#fff" stroke="#fff" stroke-width="0.2"></path><path id="Path_215" data-name="Path 215" d="M1024.819,557.782a1.649,1.649,0,0,1-.683-.544,1.386,1.386,0,0,1-.256-.8h.775a1.031,1.031,0,0,0,.324.66,1.169,1.169,0,0,0,.829.268,1.213,1.213,0,0,0,.82-.26.846.846,0,0,0,.3-.668.76.76,0,0,0-.176-.52,1.136,1.136,0,0,0-.44-.3,7.03,7.03,0,0,0-.712-.224,6.224,6.224,0,0,1-.884-.288,1.422,1.422,0,0,1-.569-.452,1.331,1.331,0,0,1-.236-.828,1.431,1.431,0,0,1,.233-.808,1.5,1.5,0,0,1,.652-.544,2.288,2.288,0,0,1,.964-.193,2.018,2.018,0,0,1,1.284.393,1.449,1.449,0,0,1,.563,1.04h-.8a.865.865,0,0,0-.336-.564,1.194,1.194,0,0,0-.784-.245,1.143,1.143,0,0,0-.745.237.809.809,0,0,0-.288.66.718.718,0,0,0,.172.5,1.107,1.107,0,0,0,.425.292c.168.066.4.143.708.228a6.755,6.755,0,0,1,.888.3,1.491,1.491,0,0,1,.576.455,1.33,1.33,0,0,1,.24.837,1.46,1.46,0,0,1-.217.768,1.588,1.588,0,0,1-.639.584,2.122,2.122,0,0,1-1,.224A2.382,2.382,0,0,1,1024.819,557.782Z" fill="#fff" stroke="#fff" stroke-width="0.2"></path></g></g></g></svg>